<?xml version="1.0" encoding="UTF-8"?>
<svg id="Layer_1" xmlns="http://www.w3.org/2000/svg" width="540" height="700" version="1.1" viewBox="275 200 540 700">
  <!-- Generator: Adobe Illustrator 30.5.1, SVG Export Plug-In . SVG Version: 2.1.4 Build 3)  -->
  <defs>
    <style>
      .st0 {
        fill: #fff;
      }

      .st1 {
        fill: none;
      }

      .st2 {
        fill: #fe6f07;
      }

      .st3 {
        fill: #fe6c04;
      }

      .st4 {
        fill: #a7a9ac;
      }

      .st5 {
        fill: #58595b;
      }

      .st6 {
        fill: #414042;
      }

      .st7 {
        fill: #fe6e05;
      }
    </style>
  </defs>
  <path class="st6" d="M676.46,659.52l-3.98,2.58-.64.41-45.46,29.48-6.95,4.51c-2.24,1.45-5.21.81-6.65-1.42l-5.93-9.14c4.04-1.77,8.03-3.63,11.98-5.6,1.96-.97,3.92-1.97,5.85-2.98.48-.25.97-.51,1.45-.77.58-.3,1.16-.62,1.74-.93,4.84-2.62,9.59-5.37,14.26-8.28,1.09-.67,2.19-1.36,3.27-2.06,4.92-3.14,9.74-6.45,14.46-9.9.77-.55,1.53-1.11,2.27-1.68.43-.31.85-.62,1.25-.95.49-.36.98-.73,1.46-1.1,2.74-2.11,5.45-4.25,8.11-6.45l4.94,7.62c1.44,2.23.8,5.21-1.42,6.65Z"/>
  <path class="st0" d="M515.04,702.75c-42.4,0-78.55-7.31-108.44-21.94-29.89-14.63-54.28-33.92-73.14-57.88-18.87-23.95-32.76-49.82-41.66-77.59-8.9-27.77-13.36-54.79-13.36-81.09v-13.99c0-28.83,4.55-57.24,13.67-85.22,9.11-27.99,23.1-53.43,41.98-76.32,18.86-22.9,43.03-41.23,72.51-55.02,29.46-13.77,64.33-20.67,104.62-20.67s78.64,7.63,110.03,22.9c31.37,15.26,56.38,36.47,75.05,63.6,18.65,27.14,29.89,58.94,33.71,95.4h-91.58c-2.97-21.2-10.29-39-21.94-53.42-11.67-14.41-26.5-25.44-44.52-33.07-18.03-7.63-38.27-11.45-60.74-11.45s-42.61,4.03-60.42,12.08c-17.81,8.06-32.66,19.3-44.52,33.71-11.88,14.42-20.89,31.38-27.03,50.88-6.15,19.51-9.22,40.92-9.22,64.24s3.07,44.1,9.22,63.6c6.14,19.51,15.36,36.57,27.67,51.2,12.29,14.63,27.45,25.97,45.48,34.02,18.02,8.06,38.89,12.09,62.65,12.09,34.76,0,64.02-8.59,87.77-25.76,23.74-17.17,38.16-41.23,43.25-72.19h91.58c-4.24,33.07-15.48,63.39-33.71,90.95-18.24,27.57-43.25,49.61-75.05,66.14-31.8,16.54-69.75,24.8-113.85,24.8Z"/>
  <rect class="st7" x="430.68" y="560.34" width="160.19" height="6.99" rx="1.1" ry="1.1"/>
  <rect class="st3" x="412.11" y="528.83" width="198.33" height="8.86" rx="1.39" ry="1.39"/>
  <path class="st1" d="M500.69,401.06"/>
  <path class="st2" d="M444.63,428.63l36.73-2.64c28.5-5.2,27.97-9.56,33.17-38.07l3.23-32.41,2.06,32.41c5.2,28.5,5.4,32.86,33.9,38.07l37.16,2.64-37.16,2.64c-28.5,5.2-28.11,9.8-33.32,38.3l-2.64,32.18-2.64-32.18c-5.2-28.5-5.25-33.1-33.76-38.3l-36.73-2.64"/>
  <polygon class="st4" points="703.14 703.67 671.84 662.52 626.38 692 652.67 735.92 655.86 733.72 700.11 705.64 703.14 703.67"/>
  <path class="st5" d="M718.63,699.3c-8.57,7.29-19.57,15.71-31.88,24.26-15.36,10.66-29.83,19.47-40.8,25.1h0c.52-6.45,4-12.28,9.42-15.8l44.71-29c3.93-2.55,8.34-4.31,12.99-4.87,2-.24,3.97-.24,5.47.28l.08.03Z"/>
  <path class="st6" d="M811.96,838.94c7.77,12.46-3.6,33.61-25.42,47.22-21.81,13.61-45.81,14.55-53.59,2.07l-.59-1.01-81.47-125.73-2.59-4c-1.69-2.6-2.6-5.67-2.37-8.77v-.06c10.97-5.63,25.45-14.44,40.81-25.1,12.3-8.55,23.31-16.97,31.88-24.26.01,0,.03,0,.04.01,2.31.8,4.24,2.43,5.57,4.48l4.14,6.38,83.02,127.81.56.96Z"/>
</svg>
